<svg xmlns="http://www.w3.org/2000/svg" width="494.262" height="494.257" viewBox="0 0 494.262 494.257">
  <g id="Group_180" data-name="Group 180" transform="translate(494.262 494.257) rotate(180)" opacity="0.261">
    <path id="Path_29367" data-name="Path 29367" d="M73.069,197.331a11.708,11.708,0,1,1,16.562,0A11.7,11.7,0,0,1,73.069,197.331Z" transform="translate(401.199 -177.345)" fill="#d9d5d5"/>
    <path id="Path_29368" data-name="Path 29368" d="M73.069,200.331a11.711,11.711,0,1,1,16.562,0A11.709,11.709,0,0,1,73.069,200.331Z" transform="translate(401.199 -153.558)" fill="#d9d5d5"/>
    <circle id="Ellipse_12160" data-name="Ellipse 12160" cx="11.711" cy="11.711" r="11.711" transform="translate(457.45 13.39)" fill="#d9d5d5"/>
    <circle id="Ellipse_12161" data-name="Ellipse 12161" cx="11.71" cy="11.71" r="11.71" transform="translate(444.06)" fill="#d9d5d5"/>
    <circle id="Ellipse_12162" data-name="Ellipse 12162" cx="11.08" cy="11.08" r="11.08" transform="translate(471.471 54.194)" fill="#d9d5d5"/>
    <path id="Path_29369" data-name="Path 29369" d="M71.456,200.821a11.081,11.081,0,1,1,15.676,0A11.082,11.082,0,0,1,71.456,200.821Z" transform="translate(389.867 -141.103)" fill="#d9d5d5"/>
    <circle id="Ellipse_12163" data-name="Ellipse 12163" cx="11.08" cy="11.08" r="11.08" transform="translate(444.689 27.412)" fill="#d9d5d5"/>
    <path id="Path_29370" data-name="Path 29370" d="M68.471,197.823a11.078,11.078,0,1,1,15.667,0A11.066,11.066,0,0,1,68.471,197.823Z" transform="translate(366.075 -164.891)" fill="#d9d5d5"/>
    <path id="Path_29371" data-name="Path 29371" d="M66.969,196.336a11.081,11.081,0,1,1,15.667,0A11.093,11.093,0,0,1,66.969,196.336Z" transform="translate(354.184 -176.788)" fill="#d9d5d5"/>
    <path id="Path_29372" data-name="Path 29372" d="M72.833,204.216a10.395,10.395,0,1,1,14.7,0A10.385,10.385,0,0,1,72.833,204.216Z" transform="translate(402.366 -104.811)" fill="#d9d5d5"/>
    <path id="Path_29373" data-name="Path 29373" d="M71.331,202.729a10.4,10.4,0,1,1,14.709,0A10.413,10.413,0,0,1,71.331,202.729Z" transform="translate(390.475 -116.708)" fill="#d9d5d5"/>
    <circle id="Ellipse_12164" data-name="Ellipse 12164" cx="10.398" cy="10.398" r="10.398" transform="translate(445.372 54.876)" fill="#d9d5d5"/>
    <path id="Path_29374" data-name="Path 29374" d="M68.346,199.729a10.394,10.394,0,1,1,14.7,0A10.385,10.385,0,0,1,68.346,199.729Z" transform="translate(366.683 -140.494)" fill="#d9d5d5"/>
    <circle id="Ellipse_12165" data-name="Ellipse 12165" cx="10.398" cy="10.398" r="10.398" transform="translate(418.59 28.094)" fill="#d9d5d5"/>
    <circle id="Ellipse_12166" data-name="Ellipse 12166" cx="10.398" cy="10.398" r="10.398" transform="translate(405.199 14.703)" fill="#d9d5d5"/>
    <circle id="Ellipse_12167" data-name="Ellipse 12167" cx="10.398" cy="10.398" r="10.398" transform="translate(391.808 1.313)" fill="#d9d5d5"/>
    <path id="Path_29375" data-name="Path 29375" d="M72.708,206.118a9.717,9.717,0,1,1,13.742,0A9.715,9.715,0,0,1,72.708,206.118Z" transform="translate(402.975 -80.411)" fill="#d9d5d5"/>
    <path id="Path_29376" data-name="Path 29376" d="M71.212,204.62a9.714,9.714,0,1,1,13.742,0A9.7,9.7,0,0,1,71.212,204.62Z" transform="translate(391.078 -92.306)" fill="#d9d5d5"/>
    <path id="Path_29377" data-name="Path 29377" d="M69.71,203.124a9.714,9.714,0,1,1,13.742,0A9.721,9.721,0,0,1,69.71,203.124Z" transform="translate(379.187 -104.203)" fill="#d9d5d5"/>
    <path id="Path_29378" data-name="Path 29378" d="M68.221,201.637a9.714,9.714,0,1,1,13.733,0A9.715,9.715,0,0,1,68.221,201.637Z" transform="translate(367.292 -116.1)" fill="#d9d5d5"/>
    <path id="Path_29379" data-name="Path 29379" d="M66.725,200.135a9.714,9.714,0,1,1,13.733,0A9.715,9.715,0,0,1,66.725,200.135Z" transform="translate(355.395 -127.991)" fill="#d9d5d5"/>
    <path id="Path_29380" data-name="Path 29380" d="M65.229,198.639a9.717,9.717,0,1,1,13.742,0A9.715,9.715,0,0,1,65.229,198.639Z" transform="translate(343.498 -139.888)" fill="#d9d5d5"/>
    <path id="Path_29381" data-name="Path 29381" d="M63.733,197.141a9.714,9.714,0,1,1,13.742,0A9.7,9.7,0,0,1,63.733,197.141Z" transform="translate(331.601 -151.783)" fill="#d9d5d5"/>
    <path id="Path_29382" data-name="Path 29382" d="M62.231,195.654a9.717,9.717,0,1,1,13.742,0A9.732,9.732,0,0,1,62.231,195.654Z" transform="translate(319.71 -163.68)" fill="#d9d5d5"/>
    <path id="Path_29383" data-name="Path 29383" d="M60.742,194.158a9.714,9.714,0,1,1,13.733,0A9.715,9.715,0,0,1,60.742,194.158Z" transform="translate(307.815 -175.577)" fill="#d9d5d5"/>
    <circle id="Ellipse_12168" data-name="Ellipse 12168" cx="9.033" cy="9.033" r="9.033" transform="translate(473.519 136.587)" fill="#d9d5d5"/>
    <circle id="Ellipse_12169" data-name="Ellipse 12169" cx="9.033" cy="9.033" r="9.033" transform="translate(460.128 123.196)" fill="#d9d5d5"/>
    <circle id="Ellipse_12170" data-name="Ellipse 12170" cx="9.032" cy="9.032" r="9.032" transform="translate(446.737 109.806)" fill="#d9d5d5"/>
    <circle id="Ellipse_12171" data-name="Ellipse 12171" cx="9.032" cy="9.032" r="9.032" transform="translate(433.346 96.415)" fill="#d9d5d5"/>
    <path id="Path_29384" data-name="Path 29384" d="M66.6,202.032a9.03,9.03,0,1,1,12.775,0A9.024,9.024,0,0,1,66.6,202.032Z" transform="translate(356.003 -103.595)" fill="#d9d5d5"/>
    <circle id="Ellipse_12172" data-name="Ellipse 12172" cx="9.032" cy="9.032" r="9.032" transform="translate(406.565 69.633)" fill="#d9d5d5"/>
    <circle id="Ellipse_12173" data-name="Ellipse 12173" cx="9.032" cy="9.032" r="9.032" transform="translate(393.173 56.242)" fill="#d9d5d5"/>
    <circle id="Ellipse_12174" data-name="Ellipse 12174" cx="9.033" cy="9.033" r="9.033" transform="translate(379.782 42.85)" fill="#d9d5d5"/>
    <path id="Path_29385" data-name="Path 29385" d="M60.617,196.049a9.027,9.027,0,1,1,12.766,0A9.024,9.024,0,0,1,60.617,196.049Z" transform="translate(308.423 -151.175)" fill="#d9d5d5"/>
    <circle id="Ellipse_12175" data-name="Ellipse 12175" cx="9.032" cy="9.032" r="9.032" transform="translate(353 16.069)" fill="#d9d5d5"/>
    <path id="Path_29386" data-name="Path 29386" d="M57.625,193.066a9.034,9.034,0,1,1,12.775,0A9.034,9.034,0,0,1,57.625,193.066Z" transform="translate(284.629 -174.969)" fill="#d9d5d5"/>
    <circle id="Ellipse_12176" data-name="Ellipse 12176" cx="8.402" cy="8.402" r="8.402" transform="translate(474.149 163.999)" fill="#d9d5d5"/>
    <path id="Path_29387" data-name="Path 29387" d="M70.976,208.516a8.4,8.4,0,1,1,11.88,0A8.4,8.4,0,0,1,70.976,208.516Z" transform="translate(392.245 -43.561)" fill="#d9d5d5"/>
    <path id="Path_29388" data-name="Path 29388" d="M69.474,207.018a8.4,8.4,0,1,1,11.88,0A8.408,8.408,0,0,1,69.474,207.018Z" transform="translate(380.354 -55.456)" fill="#d9d5d5"/>
    <circle id="Ellipse_12177" data-name="Ellipse 12177" cx="8.402" cy="8.402" r="8.402" transform="translate(433.976 123.826)" fill="#d9d5d5"/>
    <path id="Path_29389" data-name="Path 29389" d="M66.482,204.026a8.4,8.4,0,1,1,11.889,0A8.407,8.407,0,0,1,66.482,204.026Z" transform="translate(356.56 -79.25)" fill="#d9d5d5"/>
    <path id="Path_29390" data-name="Path 29390" d="M64.993,202.533a8.4,8.4,0,1,1,11.88,0A8.4,8.4,0,0,1,64.993,202.533Z" transform="translate(344.665 -91.141)" fill="#d9d5d5"/>
    <path id="Path_29391" data-name="Path 29391" d="M63.5,201.037a8.4,8.4,0,1,1,11.88,0A8.4,8.4,0,0,1,63.5,201.037Z" transform="translate(332.768 -103.038)" fill="#d9d5d5"/>
    <circle id="Ellipse_12178" data-name="Ellipse 12178" cx="8.402" cy="8.402" r="8.402" transform="translate(380.412 70.262)" fill="#d9d5d5"/>
    <path id="Path_29392" data-name="Path 29392" d="M60.5,198.043a8.4,8.4,0,1,1,11.889,0A8.407,8.407,0,0,1,60.5,198.043Z" transform="translate(308.98 -126.83)" fill="#d9d5d5"/>
    <path id="Path_29393" data-name="Path 29393" d="M59.01,196.541a8.4,8.4,0,1,1,11.88,0A8.391,8.391,0,0,1,59.01,196.541Z" transform="translate(297.085 -138.721)" fill="#d9d5d5"/>
    <circle id="Ellipse_12179" data-name="Ellipse 12179" cx="8.402" cy="8.402" r="8.402" transform="translate(340.24 30.09)" fill="#d9d5d5"/>
    <path id="Path_29394" data-name="Path 29394" d="M56.012,193.556a8.4,8.4,0,1,1,11.88,0A8.408,8.408,0,0,1,56.012,193.556Z" transform="translate(273.297 -162.513)" fill="#d9d5d5"/>
    <path id="Path_29395" data-name="Path 29395" d="M54.516,192.06a8.4,8.4,0,1,1,11.889,0A8.408,8.408,0,0,1,54.516,192.06Z" transform="translate(261.399 -174.41)" fill="#d9d5d5"/>
    <path id="Path_29396" data-name="Path 29396" d="M72.34,211.909a7.72,7.72,0,1,1,10.922,0A7.727,7.727,0,0,1,72.34,211.909Z" transform="translate(404.748 -7.267)" fill="#d9d5d5"/>
    <path id="Path_29397" data-name="Path 29397" d="M70.851,210.413a7.717,7.717,0,1,1,10.913,0A7.71,7.71,0,0,1,70.851,210.413Z" transform="translate(392.853 -19.164)" fill="#d9d5d5"/>
    <path id="Path_29398" data-name="Path 29398" d="M69.355,208.917a7.717,7.717,0,1,1,10.913,0A7.711,7.711,0,0,1,69.355,208.917Z" transform="translate(380.956 -31.061)" fill="#d9d5d5"/>
    <circle id="Ellipse_12180" data-name="Ellipse 12180" cx="7.719" cy="7.719" r="7.719" transform="translate(434.659 151.292)" fill="#d9d5d5"/>
    <circle id="Ellipse_12181" data-name="Ellipse 12181" cx="7.72" cy="7.72" r="7.72" transform="translate(421.268 137.9)" fill="#d9d5d5"/>
    <path id="Path_29399" data-name="Path 29399" d="M64.868,204.43a7.717,7.717,0,1,1,10.913,0A7.71,7.71,0,0,1,64.868,204.43Z" transform="translate(345.273 -66.744)" fill="#d9d5d5"/>
    <path id="Path_29400" data-name="Path 29400" d="M63.372,202.934a7.717,7.717,0,1,1,10.913,0A7.711,7.711,0,0,1,63.372,202.934Z" transform="translate(333.376 -78.641)" fill="#d9d5d5"/>
    <path id="Path_29401" data-name="Path 29401" d="M61.876,201.441a7.723,7.723,0,1,1,10.922,0A7.721,7.721,0,0,1,61.876,201.441Z" transform="translate(321.479 -90.532)" fill="#d9d5d5"/>
    <path id="Path_29402" data-name="Path 29402" d="M60.374,199.945a7.723,7.723,0,1,1,10.922,0A7.738,7.738,0,0,1,60.374,199.945Z" transform="translate(309.588 -102.429)" fill="#d9d5d5"/>
    <circle id="Ellipse_12182" data-name="Ellipse 12182" cx="7.72" cy="7.72" r="7.72" transform="translate(354.313 70.945)" fill="#d9d5d5"/>
    <circle id="Ellipse_12183" data-name="Ellipse 12183" cx="7.72" cy="7.72" r="7.72" transform="translate(340.922 57.554)" fill="#d9d5d5"/>
    <path id="Path_29403" data-name="Path 29403" d="M55.893,195.455a7.717,7.717,0,1,1,10.913,0A7.711,7.711,0,0,1,55.893,195.455Z" transform="translate(273.899 -138.118)" fill="#d9d5d5"/>
    <path id="Path_29404" data-name="Path 29404" d="M54.4,193.962a7.723,7.723,0,1,1,10.922,0A7.721,7.721,0,0,1,54.4,193.962Z" transform="translate(262.002 -150.01)" fill="#d9d5d5"/>
    <path id="Path_29405" data-name="Path 29405" d="M52.9,192.464a7.72,7.72,0,1,1,10.922,0A7.727,7.727,0,0,1,52.9,192.464Z" transform="translate(250.111 -161.905)" fill="#d9d5d5"/>
    <circle id="Ellipse_12184" data-name="Ellipse 12184" cx="7.72" cy="7.72" r="7.72" transform="translate(287.358 3.99)" fill="#d9d5d5"/>
    <circle id="Ellipse_12185" data-name="Ellipse 12185" cx="7.037" cy="7.037" r="7.037" transform="translate(475.515 218.929)" fill="#d9d5d5"/>
    <circle id="Ellipse_12186" data-name="Ellipse 12186" cx="7.037" cy="7.037" r="7.037" transform="translate(462.124 205.538)" fill="#d9d5d5"/>
    <circle id="Ellipse_12187" data-name="Ellipse 12187" cx="7.037" cy="7.037" r="7.037" transform="translate(448.733 192.147)" fill="#d9d5d5"/>
    <circle id="Ellipse_12188" data-name="Ellipse 12188" cx="7.037" cy="7.037" r="7.037" transform="translate(435.342 178.756)" fill="#d9d5d5"/>
    <circle id="Ellipse_12189" data-name="Ellipse 12189" cx="7.037" cy="7.037" r="7.037" transform="translate(421.951 165.365)" fill="#d9d5d5"/>
    <path id="Path_29406" data-name="Path 29406" d="M64.743,206.338a7.036,7.036,0,1,1,9.946,0A7.04,7.04,0,0,1,64.743,206.338Z" transform="translate(345.881 -42.35)" fill="#d9d5d5"/>
    <circle id="Ellipse_12190" data-name="Ellipse 12190" cx="7.037" cy="7.037" r="7.037" transform="translate(395.169 138.583)" fill="#d9d5d5"/>
    <circle id="Ellipse_12191" data-name="Ellipse 12191" cx="7.037" cy="7.037" r="7.037" transform="translate(381.778 125.193)" fill="#d9d5d5"/>
    <path id="Path_29407" data-name="Path 29407" d="M60.255,201.842a7.036,7.036,0,1,1,9.955,0A7.03,7.03,0,0,1,60.255,201.842Z" transform="translate(310.19 -78.033)" fill="#d9d5d5"/>
    <path id="Path_29408" data-name="Path 29408" d="M58.753,200.355a7.039,7.039,0,1,1,9.955,0A7.057,7.057,0,0,1,58.753,200.355Z" transform="translate(298.299 -89.93)" fill="#d9d5d5"/>
    <circle id="Ellipse_12192" data-name="Ellipse 12192" cx="7.037" cy="7.037" r="7.037" transform="translate(341.605 85.019)" fill="#d9d5d5"/>
    <circle id="Ellipse_12193" data-name="Ellipse 12193" cx="7.037" cy="7.037" r="7.037" transform="translate(328.214 71.628)" fill="#d9d5d5"/>
    <path id="Path_29409" data-name="Path 29409" d="M54.272,195.859a7.036,7.036,0,1,1,9.955,0A7.029,7.029,0,0,1,54.272,195.859Z" transform="translate(262.61 -125.613)" fill="#d9d5d5"/>
    <circle id="Ellipse_12194" data-name="Ellipse 12194" cx="7.037" cy="7.037" r="7.037" transform="translate(301.432 44.846)" fill="#d9d5d5"/>
    <circle id="Ellipse_12195" data-name="Ellipse 12195" cx="7.036" cy="7.036" r="7.036" transform="translate(288.042 31.456)" fill="#d9d5d5"/>
    <circle id="Ellipse_12196" data-name="Ellipse 12196" cx="7.037" cy="7.037" r="7.037" transform="translate(274.65 18.064)" fill="#d9d5d5"/>
    <circle id="Ellipse_12197" data-name="Ellipse 12197" cx="7.037" cy="7.037" r="7.037" transform="translate(261.259 4.673)" fill="#d9d5d5"/>
    <path id="Path_29410" data-name="Path 29410" d="M72.1,215.8a6.406,6.406,0,1,1,9.06,0A6.414,6.414,0,0,1,72.1,215.8Z" transform="translate(405.915 41.478)" fill="#d9d5d5"/>
    <path id="Path_29411" data-name="Path 29411" d="M70.608,214.307a6.406,6.406,0,1,1,9.06,0A6.414,6.414,0,0,1,70.608,214.307Z" transform="translate(394.018 29.583)" fill="#d9d5d5"/>
    <path id="Path_29412" data-name="Path 29412" d="M69.119,212.811a6.406,6.406,0,1,1,9.06,0A6.4,6.4,0,0,1,69.119,212.811Z" transform="translate(382.123 17.686)" fill="#d9d5d5"/>
    <path id="Path_29413" data-name="Path 29413" d="M67.623,211.309a6.406,6.406,0,1,1,9.06,0A6.4,6.4,0,0,1,67.623,211.309Z" transform="translate(370.226 5.795)" fill="#d9d5d5"/>
    <path id="Path_29414" data-name="Path 29414" d="M66.121,209.813a6.406,6.406,0,1,1,9.06,0A6.414,6.414,0,0,1,66.121,209.813Z" transform="translate(358.335 -6.102)" fill="#d9d5d5"/>
    <path id="Path_29415" data-name="Path 29415" d="M64.625,208.326a6.41,6.41,0,1,1,9.06,0A6.425,6.425,0,0,1,64.625,208.326Z" transform="translate(346.438 -17.999)" fill="#d9d5d5"/>
    <path id="Path_29416" data-name="Path 29416" d="M63.136,206.828a6.406,6.406,0,1,1,9.06,0A6.4,6.4,0,0,1,63.136,206.828Z" transform="translate(334.543 -29.894)" fill="#d9d5d5"/>
    <circle id="Ellipse_12198" data-name="Ellipse 12198" cx="6.407" cy="6.407" r="6.407" transform="translate(382.408 152.604)" fill="#d9d5d5"/>
    <path id="Path_29417" data-name="Path 29417" d="M60.138,203.83a6.406,6.406,0,1,1,9.06,0A6.414,6.414,0,0,1,60.138,203.83Z" transform="translate(310.755 -53.682)" fill="#d9d5d5"/>
    <path id="Path_29418" data-name="Path 29418" d="M58.642,202.334a6.406,6.406,0,1,1,9.06,0A6.414,6.414,0,0,1,58.642,202.334Z" transform="translate(298.858 -65.579)" fill="#d9d5d5"/>
    <path id="Path_29419" data-name="Path 29419" d="M57.146,200.845a6.41,6.41,0,1,1,9.069,0A6.414,6.414,0,0,1,57.146,200.845Z" transform="translate(286.961 -77.474)" fill="#d9d5d5"/>
    <path id="Path_29420" data-name="Path 29420" d="M55.657,199.349a6.406,6.406,0,1,1,9.06,0A6.4,6.4,0,0,1,55.657,199.349Z" transform="translate(275.066 -89.371)" fill="#d9d5d5"/>
    <path id="Path_29421" data-name="Path 29421" d="M54.161,197.847a6.406,6.406,0,1,1,9.06,0A6.4,6.4,0,0,1,54.161,197.847Z" transform="translate(263.169 -101.263)" fill="#d9d5d5"/>
    <path id="Path_29422" data-name="Path 29422" d="M52.659,196.351a6.406,6.406,0,1,1,9.06,0A6.414,6.414,0,0,1,52.659,196.351Z" transform="translate(251.278 -113.159)" fill="#d9d5d5"/>
    <circle id="Ellipse_12199" data-name="Ellipse 12199" cx="6.407" cy="6.407" r="6.407" transform="translate(288.671 58.867)" fill="#d9d5d5"/>
    <path id="Path_29423" data-name="Path 29423" d="M49.674,193.366a6.406,6.406,0,1,1,9.06,0A6.4,6.4,0,0,1,49.674,193.366Z" transform="translate(227.486 -136.952)" fill="#d9d5d5"/>
    <circle id="Ellipse_12200" data-name="Ellipse 12200" cx="6.407" cy="6.407" r="6.407" transform="translate(261.889 32.085)" fill="#d9d5d5"/>
    <path id="Path_29424" data-name="Path 29424" d="M46.676,190.368a6.406,6.406,0,1,1,9.06,0A6.414,6.414,0,0,1,46.676,190.368Z" transform="translate(203.698 -160.74)" fill="#d9d5d5"/>
    <path id="Path_29425" data-name="Path 29425" d="M45.18,188.872a6.406,6.406,0,1,1,9.06,0A6.414,6.414,0,0,1,45.18,188.872Z" transform="translate(191.801 -172.637)" fill="#d9d5d5"/>
    <path id="Path_29426" data-name="Path 29426" d="M71.985,217.7a5.723,5.723,0,1,1,8.093,0A5.717,5.717,0,0,1,71.985,217.7Z" transform="translate(406.518 65.874)" fill="#d9d5d5"/>
    <circle id="Ellipse_12201" data-name="Ellipse 12201" cx="5.724" cy="5.724" r="5.724" transform="translate(463.437 260.415)" fill="#d9d5d5"/>
    <circle id="Ellipse_12202" data-name="Ellipse 12202" cx="5.724" cy="5.724" r="5.724" transform="translate(450.046 247.024)" fill="#d9d5d5"/>
    <circle id="Ellipse_12203" data-name="Ellipse 12203" cx="5.724" cy="5.724" r="5.724" transform="translate(436.654 233.632)" fill="#d9d5d5"/>
    <path id="Path_29427" data-name="Path 29427" d="M66,211.719a5.723,5.723,0,1,1,8.093,0A5.717,5.717,0,0,1,66,211.719Z" transform="translate(358.938 18.294)" fill="#d9d5d5"/>
    <circle id="Ellipse_12204" data-name="Ellipse 12204" cx="5.724" cy="5.724" r="5.724" transform="translate(409.873 206.851)" fill="#d9d5d5"/>
    <circle id="Ellipse_12205" data-name="Ellipse 12205" cx="5.724" cy="5.724" r="5.724" transform="translate(396.482 193.46)" fill="#d9d5d5"/>
    <path id="Path_29428" data-name="Path 29428" d="M61.515,207.232a5.723,5.723,0,1,1,8.093,0A5.717,5.717,0,0,1,61.515,207.232Z" transform="translate(323.254 -17.389)" fill="#d9d5d5"/>
    <circle id="Ellipse_12206" data-name="Ellipse 12206" cx="5.724" cy="5.724" r="5.724" transform="translate(369.7 166.678)" fill="#d9d5d5"/>
    <circle id="Ellipse_12207" data-name="Ellipse 12207" cx="5.724" cy="5.724" r="5.724" transform="translate(356.309 153.287)" fill="#d9d5d5"/>
    <path id="Path_29429" data-name="Path 29429" d="M57.021,202.744a5.726,5.726,0,1,1,8.1,0A5.733,5.733,0,0,1,57.021,202.744Z" transform="translate(287.569 -53.08)" fill="#d9d5d5"/>
    <path id="Path_29430" data-name="Path 29430" d="M55.532,201.251a5.726,5.726,0,1,1,8.093,0A5.728,5.728,0,0,1,55.532,201.251Z" transform="translate(275.674 -64.971)" fill="#d9d5d5"/>
    <circle id="Ellipse_12208" data-name="Ellipse 12208" cx="5.724" cy="5.724" r="5.724" transform="translate(316.136 113.114)" fill="#d9d5d5"/>
    <circle id="Ellipse_12209" data-name="Ellipse 12209" cx="5.724" cy="5.724" r="5.724" transform="translate(302.745 99.723)" fill="#d9d5d5"/>
    <path id="Path_29431" data-name="Path 29431" d="M51.038,196.761a5.726,5.726,0,1,1,8.1,0A5.733,5.733,0,0,1,51.038,196.761Z" transform="translate(239.989 -100.66)" fill="#d9d5d5"/>
    <path id="Path_29432" data-name="Path 29432" d="M49.549,195.268a5.726,5.726,0,1,1,8.093,0A5.728,5.728,0,0,1,49.549,195.268Z" transform="translate(228.094 -112.551)" fill="#d9d5d5"/>
    <circle id="Ellipse_12210" data-name="Ellipse 12210" cx="5.724" cy="5.724" r="5.724" transform="translate(262.572 59.55)" fill="#d9d5d5"/>
    <circle id="Ellipse_12211" data-name="Ellipse 12211" cx="5.724" cy="5.724" r="5.724" transform="translate(249.181 46.159)" fill="#d9d5d5"/>
    <path id="Path_29433" data-name="Path 29433" d="M45.055,190.778a5.723,5.723,0,1,1,8.093,0A5.733,5.733,0,0,1,45.055,190.778Z" transform="translate(192.409 -148.24)" fill="#d9d5d5"/>
    <circle id="Ellipse_12212" data-name="Ellipse 12212" cx="5.724" cy="5.724" r="5.724" transform="translate(222.399 19.377)" fill="#d9d5d5"/>
    <circle id="Ellipse_12213" data-name="Ellipse 12213" cx="5.724" cy="5.724" r="5.724" transform="translate(209.008 5.986)" fill="#d9d5d5"/>
    <circle id="Ellipse_12214" data-name="Ellipse 12214" cx="5.094" cy="5.094" r="5.094" transform="translate(477.458 301.218)" fill="#d9d5d5"/>
    <path id="Path_29434" data-name="Path 29434" d="M70.372,218.194a5.1,5.1,0,1,1,7.207,0A5.1,5.1,0,0,1,70.372,218.194Z" transform="translate(395.185 78.328)" fill="#d9d5d5"/>
    <circle id="Ellipse_12215" data-name="Ellipse 12215" cx="5.094" cy="5.094" r="5.094" transform="translate(450.676 274.436)" fill="#d9d5d5"/>
    <circle id="Ellipse_12216" data-name="Ellipse 12216" cx="5.094" cy="5.094" r="5.094" transform="translate(437.285 261.045)" fill="#d9d5d5"/>
    <circle id="Ellipse_12217" data-name="Ellipse 12217" cx="5.094" cy="5.094" r="5.094" transform="translate(423.894 247.654)" fill="#d9d5d5"/>
    <circle id="Ellipse_12218" data-name="Ellipse 12218" cx="5.094" cy="5.094" r="5.094" transform="translate(410.503 234.263)" fill="#d9d5d5"/>
    <circle id="Ellipse_12219" data-name="Ellipse 12219" cx="5.094" cy="5.094" r="5.094" transform="translate(397.112 220.872)" fill="#d9d5d5"/>
    <circle id="Ellipse_12220" data-name="Ellipse 12220" cx="5.094" cy="5.094" r="5.094" transform="translate(383.721 207.481)" fill="#d9d5d5"/>
    <circle id="Ellipse_12221" data-name="Ellipse 12221" cx="5.093" cy="5.093" r="5.093" transform="translate(370.33 194.09)" fill="#d9d5d5"/>
    <circle id="Ellipse_12222" data-name="Ellipse 12222" cx="5.094" cy="5.094" r="5.094" transform="translate(356.939 180.699)" fill="#d9d5d5"/>
    <circle id="Ellipse_12223" data-name="Ellipse 12223" cx="5.094" cy="5.094" r="5.094" transform="translate(343.548 167.308)" fill="#d9d5d5"/>
    <circle id="Ellipse_12224" data-name="Ellipse 12224" cx="5.094" cy="5.094" r="5.094" transform="translate(330.157 153.917)" fill="#d9d5d5"/>
    <path id="Path_29435" data-name="Path 29435" d="M53.925,201.741a5.093,5.093,0,1,1,7.2,0A5.084,5.084,0,0,1,53.925,201.741Z" transform="translate(264.336 -52.515)" fill="#d9d5d5"/>
    <path id="Path_29436" data-name="Path 29436" d="M52.423,200.245a5.093,5.093,0,1,1,7.2,0A5.1,5.1,0,0,1,52.423,200.245Z" transform="translate(252.445 -64.412)" fill="#d9d5d5"/>
    <circle id="Ellipse_12225" data-name="Ellipse 12225" cx="5.094" cy="5.094" r="5.094" transform="translate(289.984 113.744)" fill="#d9d5d5"/>
    <circle id="Ellipse_12226" data-name="Ellipse 12226" cx="5.094" cy="5.094" r="5.094" transform="translate(276.593 100.353)" fill="#d9d5d5"/>
    <circle id="Ellipse_12227" data-name="Ellipse 12227" cx="5.094" cy="5.094" r="5.094" transform="translate(263.202 86.962)" fill="#d9d5d5"/>
    <path id="Path_29437" data-name="Path 29437" d="M46.44,194.262a5.093,5.093,0,1,1,7.2,0A5.1,5.1,0,0,1,46.44,194.262Z" transform="translate(204.865 -111.992)" fill="#d9d5d5"/>
    <circle id="Ellipse_12228" data-name="Ellipse 12228" cx="5.094" cy="5.094" r="5.094" transform="translate(236.42 60.18)" fill="#d9d5d5"/>
    <circle id="Ellipse_12229" data-name="Ellipse 12229" cx="5.093" cy="5.093" r="5.093" transform="translate(223.03 46.789)" fill="#d9d5d5"/>
    <circle id="Ellipse_12230" data-name="Ellipse 12230" cx="5.094" cy="5.094" r="5.094" transform="translate(209.638 33.398)" fill="#d9d5d5"/>
    <circle id="Ellipse_12231" data-name="Ellipse 12231" cx="5.094" cy="5.094" r="5.094" transform="translate(196.247 20.007)" fill="#d9d5d5"/>
    <circle id="Ellipse_12232" data-name="Ellipse 12232" cx="5.094" cy="5.094" r="5.094" transform="translate(182.856 6.616)" fill="#d9d5d5"/>
    <path id="Path_29438" data-name="Path 29438" d="M71.749,221.587a4.409,4.409,0,1,1,6.24,0A4.393,4.393,0,0,1,71.749,221.587Z" transform="translate(407.685 114.622)" fill="#d9d5d5"/>
    <path id="Path_29439" data-name="Path 29439" d="M70.247,220.1a4.412,4.412,0,1,1,6.24,0A4.42,4.42,0,0,1,70.247,220.1Z" transform="translate(395.794 102.725)" fill="#d9d5d5"/>
    <circle id="Ellipse_12233" data-name="Ellipse 12233" cx="4.411" cy="4.411" r="4.411" transform="translate(451.358 301.901)" fill="#d9d5d5"/>
    <path id="Path_29440" data-name="Path 29440" d="M67.255,217.1a4.412,4.412,0,1,1,6.24,0A4.42,4.42,0,0,1,67.255,217.1Z" transform="translate(372 78.937)" fill="#d9d5d5"/>
    <path id="Path_29441" data-name="Path 29441" d="M65.766,215.606a4.412,4.412,0,1,1,6.24,0A4.4,4.4,0,0,1,65.766,215.606Z" transform="translate(360.105 67.039)" fill="#d9d5d5"/>
    <circle id="Ellipse_12234" data-name="Ellipse 12234" cx="4.411" cy="4.411" r="4.411" transform="translate(411.186 261.728)" fill="#d9d5d5"/>
    <circle id="Ellipse_12235" data-name="Ellipse 12235" cx="4.411" cy="4.411" r="4.411" transform="translate(397.794 248.337)" fill="#d9d5d5"/>
    <path id="Path_29442" data-name="Path 29442" d="M61.272,211.119a4.412,4.412,0,1,1,6.24,0A4.42,4.42,0,0,1,61.272,211.119Z" transform="translate(324.419 31.356)" fill="#d9d5d5"/>
    <circle id="Ellipse_12236" data-name="Ellipse 12236" cx="4.411" cy="4.411" r="4.411" transform="translate(371.013 221.555)" fill="#d9d5d5"/>
    <circle id="Ellipse_12237" data-name="Ellipse 12237" cx="4.411" cy="4.411" r="4.411" transform="translate(357.622 208.164)" fill="#d9d5d5"/>
    <path id="Path_29443" data-name="Path 29443" d="M56.785,206.632a4.412,4.412,0,1,1,6.24,0A4.42,4.42,0,0,1,56.785,206.632Z" transform="translate(288.736 -4.327)" fill="#d9d5d5"/>
    <path id="Path_29444" data-name="Path 29444" d="M55.289,205.136a4.412,4.412,0,1,1,6.24,0A4.42,4.42,0,0,1,55.289,205.136Z" transform="translate(276.839 -16.224)" fill="#d9d5d5"/>
    <path id="Path_29445" data-name="Path 29445" d="M53.8,203.64a4.409,4.409,0,1,1,6.231,0A4.4,4.4,0,0,1,53.8,203.64Z" transform="translate(264.944 -28.121)" fill="#d9d5d5"/>
    <path id="Path_29446" data-name="Path 29446" d="M52.3,202.142a4.409,4.409,0,1,1,6.24,0A4.393,4.393,0,0,1,52.3,202.142Z" transform="translate(253.047 -40.016)" fill="#d9d5d5"/>
    <path id="Path_29447" data-name="Path 29447" d="M50.8,200.655a4.412,4.412,0,1,1,6.24,0A4.42,4.42,0,0,1,50.8,200.655Z" transform="translate(241.156 -51.913)" fill="#d9d5d5"/>
    <path id="Path_29448" data-name="Path 29448" d="M49.306,199.153a4.412,4.412,0,1,1,6.24,0A4.42,4.42,0,0,1,49.306,199.153Z" transform="translate(229.259 -63.804)" fill="#d9d5d5"/>
    <path id="Path_29449" data-name="Path 29449" d="M47.81,197.657a4.412,4.412,0,1,1,6.24,0A4.42,4.42,0,0,1,47.81,197.657Z" transform="translate(217.362 -75.701)" fill="#d9d5d5"/>
    <path id="Path_29450" data-name="Path 29450" d="M46.321,196.161a4.409,4.409,0,1,1,6.231,0A4.4,4.4,0,0,1,46.321,196.161Z" transform="translate(205.467 -87.598)" fill="#d9d5d5"/>
    <path id="Path_29451" data-name="Path 29451" d="M44.825,194.672a4.412,4.412,0,1,1,6.24,0A4.4,4.4,0,0,1,44.825,194.672Z" transform="translate(193.57 -99.493)" fill="#d9d5d5"/>
    <path id="Path_29452" data-name="Path 29452" d="M43.323,193.176a4.412,4.412,0,1,1,6.24,0A4.42,4.42,0,0,1,43.323,193.176Z" transform="translate(181.679 -111.39)" fill="#d9d5d5"/>
    <circle id="Ellipse_12238" data-name="Ellipse 12238" cx="4.411" cy="4.411" r="4.411" transform="translate(210.321 60.863)" fill="#d9d5d5"/>
    <circle id="Ellipse_12239" data-name="Ellipse 12239" cx="4.411" cy="4.411" r="4.411" transform="translate(196.93 47.472)" fill="#d9d5d5"/>
    <path id="Path_29453" data-name="Path 29453" d="M38.842,188.68a4.409,4.409,0,1,1,6.24,0A4.393,4.393,0,0,1,38.842,188.68Z" transform="translate(145.99 -147.073)" fill="#d9d5d5"/>
    <path id="Path_29454" data-name="Path 29454" d="M37.34,187.193a4.412,4.412,0,1,1,6.24,0A4.42,4.42,0,0,1,37.34,187.193Z" transform="translate(134.099 -158.97)" fill="#d9d5d5"/>
    <circle id="Ellipse_12240" data-name="Ellipse 12240" cx="4.411" cy="4.411" r="4.411" transform="translate(156.757 7.299)" fill="#d9d5d5"/>
    <path id="Path_29455" data-name="Path 29455" d="M71.632,223.575a3.779,3.779,0,1,1,5.345,0A3.777,3.777,0,0,1,71.632,223.575Z" transform="translate(408.249 138.972)" fill="#d9d5d5"/>
    <circle id="Ellipse_12241" data-name="Ellipse 12241" cx="3.781" cy="3.781" r="3.781" transform="translate(465.379 342.704)" fill="#d9d5d5"/>
    <path id="Path_29456" data-name="Path 29456" d="M68.64,220.586a3.782,3.782,0,1,1,5.345,0A3.788,3.788,0,0,1,68.64,220.586Z" transform="translate(384.455 115.184)" fill="#d9d5d5"/>
    <path id="Path_29457" data-name="Path 29457" d="M67.144,219.088a3.782,3.782,0,1,1,5.354,0A3.777,3.777,0,0,1,67.144,219.088Z" transform="translate(372.558 103.289)" fill="#d9d5d5"/>
    <path id="Path_29458" data-name="Path 29458" d="M65.642,217.592a3.782,3.782,0,1,1,5.354,0A3.793,3.793,0,0,1,65.642,217.592Z" transform="translate(360.667 91.392)" fill="#d9d5d5"/>
    <path id="Path_29459" data-name="Path 29459" d="M64.153,216.1a3.779,3.779,0,1,1,5.345,0A3.777,3.777,0,0,1,64.153,216.1Z" transform="translate(348.772 79.495)" fill="#d9d5d5"/>
    <path id="Path_29460" data-name="Path 29460" d="M62.657,214.609a3.782,3.782,0,1,1,5.345,0A3.788,3.788,0,0,1,62.657,214.609Z" transform="translate(336.875 67.598)" fill="#d9d5d5"/>
    <circle id="Ellipse_12242" data-name="Ellipse 12242" cx="3.781" cy="3.781" r="3.781" transform="translate(385.034 262.357)" fill="#d9d5d5"/>
    <path id="Path_29461" data-name="Path 29461" d="M59.665,211.609a3.782,3.782,0,1,1,5.354,0A3.777,3.777,0,0,1,59.665,211.609Z" transform="translate(313.081 43.812)" fill="#d9d5d5"/>
    <path id="Path_29462" data-name="Path 29462" d="M58.17,210.113a3.779,3.779,0,1,1,5.345,0A3.777,3.777,0,0,1,58.17,210.113Z" transform="translate(301.192 31.915)" fill="#d9d5d5"/>
    <path id="Path_29463" data-name="Path 29463" d="M56.674,208.617a3.779,3.779,0,1,1,5.345,0A3.777,3.777,0,0,1,56.674,208.617Z" transform="translate(289.295 20.018)" fill="#d9d5d5"/>
    <path id="Path_29464" data-name="Path 29464" d="M55.178,207.13a3.782,3.782,0,1,1,5.345,0A3.788,3.788,0,0,1,55.178,207.13Z" transform="translate(277.398 8.121)" fill="#d9d5d5"/>
    <circle id="Ellipse_12243" data-name="Ellipse 12243" cx="3.781" cy="3.781" r="3.781" transform="translate(318.078 195.403)" fill="#d9d5d5"/>
    <path id="Path_29465" data-name="Path 29465" d="M52.187,204.13a3.779,3.779,0,1,1,5.345,0A3.777,3.777,0,0,1,52.187,204.13Z" transform="translate(253.612 -15.665)" fill="#d9d5d5"/>
    <path id="Path_29466" data-name="Path 29466" d="M50.691,202.634a3.779,3.779,0,1,1,5.345,0A3.777,3.777,0,0,1,50.691,202.634Z" transform="translate(241.715 -27.562)" fill="#d9d5d5"/>
    <path id="Path_29467" data-name="Path 29467" d="M49.2,201.147a3.782,3.782,0,1,1,5.345,0A3.788,3.788,0,0,1,49.2,201.147Z" transform="translate(229.818 -39.459)" fill="#d9d5d5"/>
    <path id="Path_29468" data-name="Path 29468" d="M47.7,199.643a3.779,3.779,0,1,1,5.345,0A3.777,3.777,0,0,1,47.7,199.643Z" transform="translate(217.921 -51.348)" fill="#d9d5d5"/>
    <path id="Path_29469" data-name="Path 29469" d="M46.2,198.147a3.782,3.782,0,1,1,5.354,0A3.793,3.793,0,0,1,46.2,198.147Z" transform="translate(206.03 -63.245)" fill="#d9d5d5"/>
    <circle id="Ellipse_12244" data-name="Ellipse 12244" cx="3.781" cy="3.781" r="3.781" transform="translate(237.733 115.056)" fill="#d9d5d5"/>
    <path id="Path_29470" data-name="Path 29470" d="M43.212,195.164a3.782,3.782,0,1,1,5.345,0A3.788,3.788,0,0,1,43.212,195.164Z" transform="translate(182.238 -87.039)" fill="#d9d5d5"/>
    <circle id="Ellipse_12245" data-name="Ellipse 12245" cx="3.781" cy="3.781" r="3.781" transform="translate(210.951 88.275)" fill="#d9d5d5"/>
    <path id="Path_29471" data-name="Path 29471" d="M40.22,192.164a3.782,3.782,0,1,1,5.354,0A3.777,3.777,0,0,1,40.22,192.164Z" transform="translate(158.444 -110.825)" fill="#d9d5d5"/>
    <path id="Path_29472" data-name="Path 29472" d="M38.725,190.668a3.779,3.779,0,1,1,5.345,0A3.777,3.777,0,0,1,38.725,190.668Z" transform="translate(146.555 -122.722)" fill="#d9d5d5"/>
    <path id="Path_29473" data-name="Path 29473" d="M37.229,189.172a3.779,3.779,0,1,1,5.345,0A3.777,3.777,0,0,1,37.229,189.172Z" transform="translate(134.658 -134.62)" fill="#d9d5d5"/>
    <path id="Path_29474" data-name="Path 29474" d="M35.733,187.685a3.782,3.782,0,1,1,5.345,0A3.788,3.788,0,0,1,35.733,187.685Z" transform="translate(122.761 -146.516)" fill="#d9d5d5"/>
    <path id="Path_29475" data-name="Path 29475" d="M34.237,186.181a3.782,3.782,0,1,1,5.354,0A3.777,3.777,0,0,1,34.237,186.181Z" transform="translate(110.864 -158.406)" fill="#d9d5d5"/>
    <path id="Path_29476" data-name="Path 29476" d="M32.742,184.685a3.779,3.779,0,1,1,5.345,0A3.777,3.777,0,0,1,32.742,184.685Z" transform="translate(98.975 -170.303)" fill="#d9d5d5"/>
    <circle id="Ellipse_12246" data-name="Ellipse 12246" cx="3.098" cy="3.098" r="3.098" transform="translate(479.453 383.559)" fill="#d9d5d5"/>
    <path id="Path_29477" data-name="Path 29477" d="M70.011,223.985a3.1,3.1,0,1,1,4.378,0A3.1,3.1,0,0,1,70.011,223.985Z" transform="translate(396.961 151.472)" fill="#d9d5d5"/>
    <circle id="Ellipse_12247" data-name="Ellipse 12247" cx="3.098" cy="3.098" r="3.098" transform="translate(452.671 356.778)" fill="#d9d5d5"/>
    <circle id="Ellipse_12248" data-name="Ellipse 12248" cx="3.098" cy="3.098" r="3.098" transform="translate(439.28 343.386)" fill="#d9d5d5"/>
    <path id="Path_29478" data-name="Path 29478" d="M65.523,219.5a3.1,3.1,0,1,1,4.387,0A3.107,3.107,0,0,1,65.523,219.5Z" transform="translate(361.27 115.787)" fill="#d9d5d5"/>
    <path id="Path_29479" data-name="Path 29479" d="M64.034,218a3.1,3.1,0,1,1,4.378,0A3.08,3.08,0,0,1,64.034,218Z" transform="translate(349.375 103.892)" fill="#d9d5d5"/>
    <path id="Path_29480" data-name="Path 29480" d="M62.532,216.5a3.1,3.1,0,1,1,4.378,0A3.1,3.1,0,0,1,62.532,216.5Z" transform="translate(337.484 92.001)" fill="#d9d5d5"/>
    <path id="Path_29481" data-name="Path 29481" d="M61.036,215a3.1,3.1,0,1,1,4.387,0A3.1,3.1,0,0,1,61.036,215Z" transform="translate(325.587 80.104)" fill="#d9d5d5"/>
    <path id="Path_29482" data-name="Path 29482" d="M59.54,213.517a3.1,3.1,0,1,1,4.387,0A3.107,3.107,0,0,1,59.54,213.517Z" transform="translate(313.69 68.207)" fill="#d9d5d5"/>
    <path id="Path_29483" data-name="Path 29483" d="M58.051,212.021a3.1,3.1,0,1,1,4.378,0A3.091,3.091,0,0,1,58.051,212.021Z" transform="translate(301.794 56.31)" fill="#d9d5d5"/>
    <path id="Path_29484" data-name="Path 29484" d="M56.549,210.523a3.1,3.1,0,1,1,4.378,0A3.1,3.1,0,0,1,56.549,210.523Z" transform="translate(289.903 44.414)" fill="#d9d5d5"/>
    <circle id="Ellipse_12249" data-name="Ellipse 12249" cx="3.098" cy="3.098" r="3.098" transform="translate(332.153 236.258)" fill="#d9d5d5"/>
    <circle id="Ellipse_12250" data-name="Ellipse 12250" cx="3.098" cy="3.098" r="3.098" transform="translate(318.762 222.868)" fill="#d9d5d5"/>
    <circle id="Ellipse_12251" data-name="Ellipse 12251" cx="3.098" cy="3.098" r="3.098" transform="translate(305.371 209.477)" fill="#d9d5d5"/>
    <path id="Path_29485" data-name="Path 29485" d="M50.566,204.54a3.1,3.1,0,1,1,4.378,0A3.1,3.1,0,0,1,50.566,204.54Z" transform="translate(242.323 -3.166)" fill="#d9d5d5"/>
    <circle id="Ellipse_12252" data-name="Ellipse 12252" cx="3.098" cy="3.098" r="3.098" transform="translate(278.589 182.694)" fill="#d9d5d5"/>
    <path id="Path_29486" data-name="Path 29486" d="M47.574,201.551a3.1,3.1,0,1,1,4.387,0A3.107,3.107,0,0,1,47.574,201.551Z" transform="translate(218.529 -26.954)" fill="#d9d5d5"/>
    <path id="Path_29487" data-name="Path 29487" d="M46.078,200.055a3.1,3.1,0,1,1,4.387,0A3.107,3.107,0,0,1,46.078,200.055Z" transform="translate(206.632 -38.851)" fill="#d9d5d5"/>
    <circle id="Ellipse_12253" data-name="Ellipse 12253" cx="3.098" cy="3.098" r="3.098" transform="translate(238.415 142.521)" fill="#d9d5d5"/>
    <path id="Path_29488" data-name="Path 29488" d="M43.087,197.055a3.1,3.1,0,1,1,4.378,0A3.1,3.1,0,0,1,43.087,197.055Z" transform="translate(182.846 -62.637)" fill="#d9d5d5"/>
    <path id="Path_29489" data-name="Path 29489" d="M41.591,195.559a3.1,3.1,0,1,1,4.378,0A3.1,3.1,0,0,1,41.591,195.559Z" transform="translate(170.949 -74.534)" fill="#d9d5d5"/>
    <circle id="Ellipse_12254" data-name="Ellipse 12254" cx="3.098" cy="3.098" r="3.098" transform="translate(198.243 102.348)" fill="#d9d5d5"/>
    <circle id="Ellipse_12255" data-name="Ellipse 12255" cx="3.098" cy="3.098" r="3.098" transform="translate(184.852 88.958)" fill="#d9d5d5"/>
    <circle id="Ellipse_12256" data-name="Ellipse 12256" cx="3.098" cy="3.098" r="3.098" transform="translate(171.461 75.567)" fill="#d9d5d5"/>
    <path id="Path_29490" data-name="Path 29490" d="M35.608,189.576a3.1,3.1,0,1,1,4.378,0A3.1,3.1,0,0,1,35.608,189.576Z" transform="translate(123.369 -122.114)" fill="#d9d5d5"/>
    <path id="Path_29491" data-name="Path 29491" d="M34.112,188.08a3.1,3.1,0,1,1,4.387,0A3.1,3.1,0,0,1,34.112,188.08Z" transform="translate(111.472 -134.011)" fill="#d9d5d5"/>
    <path id="Path_29492" data-name="Path 29492" d="M32.616,186.593a3.1,3.1,0,1,1,4.387,0A3.107,3.107,0,0,1,32.616,186.593Z" transform="translate(99.575 -145.908)" fill="#d9d5d5"/>
    <path id="Path_29493" data-name="Path 29493" d="M31.127,185.1a3.1,3.1,0,1,1,4.378,0A3.08,3.08,0,0,1,31.127,185.1Z" transform="translate(87.68 -157.803)" fill="#d9d5d5"/>
    <circle id="Ellipse_12257" data-name="Ellipse 12257" cx="3.098" cy="3.098" r="3.098" transform="translate(104.506 8.612)" fill="#d9d5d5"/>
    <path id="Path_29494" data-name="Path 29494" d="M71.389,227.469a2.469,2.469,0,1,1,3.491,0A2.48,2.48,0,0,1,71.389,227.469Z" transform="translate(409.414 187.719)" fill="#d9d5d5"/>
    <circle id="Ellipse_12258" data-name="Ellipse 12258" cx="2.468" cy="2.468" r="2.468" transform="translate(466.692 397.581)" fill="#d9d5d5"/>
    <path id="Path_29495" data-name="Path 29495" d="M68.4,224.471a2.469,2.469,0,1,1,3.492,0A2.464,2.464,0,0,1,68.4,224.471Z" transform="translate(385.622 163.931)" fill="#d9d5d5"/>
    <path id="Path_29496" data-name="Path 29496" d="M66.908,222.975a2.469,2.469,0,1,1,3.491,0A2.464,2.464,0,0,1,66.908,222.975Z" transform="translate(373.725 152.034)" fill="#d9d5d5"/>
    <path id="Path_29497" data-name="Path 29497" d="M65.406,221.477a2.466,2.466,0,1,1,3.491,0A2.469,2.469,0,0,1,65.406,221.477Z" transform="translate(361.834 140.139)" fill="#d9d5d5"/>
    <path id="Path_29498" data-name="Path 29498" d="M63.91,219.99a2.469,2.469,0,1,1,3.491,0A2.48,2.48,0,0,1,63.91,219.99Z" transform="translate(349.937 128.242)" fill="#d9d5d5"/>
    <path id="Path_29499" data-name="Path 29499" d="M62.421,218.494a2.469,2.469,0,1,1,3.491,0A2.464,2.464,0,0,1,62.421,218.494Z" transform="translate(338.042 116.345)" fill="#d9d5d5"/>
    <path id="Path_29500" data-name="Path 29500" d="M60.925,216.992a2.469,2.469,0,1,1,3.492,0A2.464,2.464,0,0,1,60.925,216.992Z" transform="translate(326.145 104.454)" fill="#d9d5d5"/>
    <circle id="Ellipse_12259" data-name="Ellipse 12259" cx="2.468" cy="2.468" r="2.468" transform="translate(372.956 303.844)" fill="#d9d5d5"/>
    <path id="Path_29501" data-name="Path 29501" d="M57.927,214.007a2.469,2.469,0,1,1,3.491,0A2.48,2.48,0,0,1,57.927,214.007Z" transform="translate(302.357 80.662)" fill="#d9d5d5"/>
    <path id="Path_29502" data-name="Path 29502" d="M56.438,212.511a2.466,2.466,0,1,1,3.483,0A2.464,2.464,0,0,1,56.438,212.511Z" transform="translate(290.462 68.765)" fill="#d9d5d5"/>
    <circle id="Ellipse_12260" data-name="Ellipse 12260" cx="2.468" cy="2.468" r="2.468" transform="translate(332.782 263.67)" fill="#d9d5d5"/>
    <circle id="Ellipse_12261" data-name="Ellipse 12261" cx="2.468" cy="2.468" r="2.468" transform="translate(319.392 250.28)" fill="#d9d5d5"/>
    <path id="Path_29503" data-name="Path 29503" d="M51.944,208.024a2.469,2.469,0,1,1,3.491,0A2.48,2.48,0,0,1,51.944,208.024Z" transform="translate(254.777 33.082)" fill="#d9d5d5"/>
    <path id="Path_29504" data-name="Path 29504" d="M50.448,206.528a2.469,2.469,0,1,1,3.491,0A2.48,2.48,0,0,1,50.448,206.528Z" transform="translate(242.88 21.185)" fill="#d9d5d5"/>
    <path id="Path_29505" data-name="Path 29505" d="M48.959,205.032a2.469,2.469,0,1,1,3.492,0A2.464,2.464,0,0,1,48.959,205.032Z" transform="translate(230.985 9.288)" fill="#d9d5d5"/>
    <circle id="Ellipse_12262" data-name="Ellipse 12262" cx="2.468" cy="2.468" r="2.468" transform="translate(265.828 196.716)" fill="#d9d5d5"/>
    <path id="Path_29506" data-name="Path 29506" d="M45.967,202.032a2.466,2.466,0,1,1,3.491,0A2.453,2.453,0,0,1,45.967,202.032Z" transform="translate(207.191 -14.498)" fill="#d9d5d5"/>
    <path id="Path_29507" data-name="Path 29507" d="M44.465,200.545a2.469,2.469,0,1,1,3.491,0A2.48,2.48,0,0,1,44.465,200.545Z" transform="translate(195.3 -26.395)" fill="#d9d5d5"/>
    <path id="Path_29508" data-name="Path 29508" d="M42.976,199.049a2.466,2.466,0,1,1,3.483,0A2.464,2.464,0,0,1,42.976,199.049Z" transform="translate(183.405 -38.292)" fill="#d9d5d5"/>
    <path id="Path_29509" data-name="Path 29509" d="M41.48,197.547a2.469,2.469,0,1,1,3.492,0A2.464,2.464,0,0,1,41.48,197.547Z" transform="translate(171.508 -50.183)" fill="#d9d5d5"/>
    <path id="Path_29510" data-name="Path 29510" d="M39.984,196.051a2.469,2.469,0,1,1,3.491,0A2.464,2.464,0,0,1,39.984,196.051Z" transform="translate(159.611 -62.08)" fill="#d9d5d5"/>
    <path id="Path_29511" data-name="Path 29511" d="M38.482,194.562a2.469,2.469,0,1,1,3.491,0A2.48,2.48,0,0,1,38.482,194.562Z" transform="translate(147.72 -73.975)" fill="#d9d5d5"/>
    <circle id="Ellipse_12263" data-name="Ellipse 12263" cx="2.468" cy="2.468" r="2.468" transform="translate(172.091 102.979)" fill="#d9d5d5"/>
    <path id="Path_29512" data-name="Path 29512" d="M35.5,191.564a2.469,2.469,0,1,1,3.492,0A2.464,2.464,0,0,1,35.5,191.564Z" transform="translate(123.928 -97.763)" fill="#d9d5d5"/>
    <path id="Path_29513" data-name="Path 29513" d="M34,190.068a2.469,2.469,0,1,1,3.492,0A2.464,2.464,0,0,1,34,190.068Z" transform="translate(112.031 -109.66)" fill="#d9d5d5"/>
    <circle id="Ellipse_12264" data-name="Ellipse 12264" cx="2.468" cy="2.468" r="2.468" transform="translate(131.918 62.806)" fill="#d9d5d5"/>
    <path id="Path_29514" data-name="Path 29514" d="M31,187.083a2.469,2.469,0,1,1,3.491,0A2.48,2.48,0,0,1,31,187.083Z" transform="translate(88.243 -133.452)" fill="#d9d5d5"/>
    <path id="Path_29515" data-name="Path 29515" d="M29.514,185.587a2.469,2.469,0,1,1,3.491,0A2.464,2.464,0,0,1,29.514,185.587Z" transform="translate(76.348 -145.349)" fill="#d9d5d5"/>
    <circle id="Ellipse_12265" data-name="Ellipse 12265" cx="2.468" cy="2.468" r="2.468" transform="translate(91.745 22.632)" fill="#d9d5d5"/>
    <circle id="Ellipse_12266" data-name="Ellipse 12266" cx="2.468" cy="2.468" r="2.468" transform="translate(78.354 9.242)" fill="#d9d5d5"/>
    <path id="Path_29516" data-name="Path 29516" d="M71.27,229.368a1.785,1.785,0,1,1,2.525,0A1.783,1.783,0,0,1,71.27,229.368Z" transform="translate(410.017 212.114)" fill="#d9d5d5"/>
    <path id="Path_29517" data-name="Path 29517" d="M69.768,227.866a1.785,1.785,0,1,1,2.525,0A1.8,1.8,0,0,1,69.768,227.866Z" transform="translate(398.126 200.223)" fill="#d9d5d5"/>
    <path id="Path_29518" data-name="Path 29518" d="M68.279,226.377a1.785,1.785,0,1,1,2.525,0A1.783,1.783,0,0,1,68.279,226.377Z" transform="translate(386.231 188.328)" fill="#d9d5d5"/>
    <path id="Path_29519" data-name="Path 29519" d="M66.783,224.881a1.785,1.785,0,1,1,2.525,0A1.783,1.783,0,0,1,66.783,224.881Z" transform="translate(374.334 176.431)" fill="#d9d5d5"/>
    <path id="Path_29520" data-name="Path 29520" d="M65.287,223.385a1.785,1.785,0,1,1,2.525,0A1.783,1.783,0,0,1,65.287,223.385Z" transform="translate(362.437 164.534)" fill="#d9d5d5"/>
    <circle id="Ellipse_12267" data-name="Ellipse 12267" cx="1.785" cy="1.785" r="1.785" transform="translate(413.811 371.481)" fill="#d9d5d5"/>
    <path id="Path_29521" data-name="Path 29521" d="M62.3,220.394a1.785,1.785,0,1,1,2.525,0A1.783,1.783,0,0,1,62.3,220.394Z" transform="translate(338.651 140.748)" fill="#d9d5d5"/>
    <path id="Path_29522" data-name="Path 29522" d="M60.8,218.9a1.785,1.785,0,1,1,2.525,0A1.783,1.783,0,0,1,60.8,218.9Z" transform="translate(326.754 128.851)" fill="#d9d5d5"/>
    <path id="Path_29523" data-name="Path 29523" d="M59.3,217.4a1.785,1.785,0,1,1,2.525,0A1.783,1.783,0,0,1,59.3,217.4Z" transform="translate(314.857 116.954)" fill="#d9d5d5"/>
    <path id="Path_29524" data-name="Path 29524" d="M57.808,215.906a1.785,1.785,0,1,1,2.525,0A1.783,1.783,0,0,1,57.808,215.906Z" transform="translate(302.96 105.057)" fill="#d9d5d5"/>
    <path id="Path_29525" data-name="Path 29525" d="M56.306,214.4a1.785,1.785,0,1,1,2.534,0A1.789,1.789,0,0,1,56.306,214.4Z" transform="translate(291.068 93.168)" fill="#d9d5d5"/>
    <path id="Path_29526" data-name="Path 29526" d="M54.817,212.915a1.785,1.785,0,1,1,2.525,0A1.783,1.783,0,0,1,54.817,212.915Z" transform="translate(279.173 81.271)" fill="#d9d5d5"/>
    <path id="Path_29527" data-name="Path 29527" d="M53.321,211.419a1.785,1.785,0,1,1,2.525,0A1.783,1.783,0,0,1,53.321,211.419Z" transform="translate(267.276 69.374)" fill="#d9d5d5"/>
    <path id="Path_29528" data-name="Path 29528" d="M51.825,209.923a1.785,1.785,0,1,1,2.525,0A1.783,1.783,0,0,1,51.825,209.923Z" transform="translate(255.379 57.477)" fill="#d9d5d5"/>
    <circle id="Ellipse_12268" data-name="Ellipse 12268" cx="1.785" cy="1.785" r="1.785" transform="translate(293.292 250.962)" fill="#d9d5d5"/>
    <path id="Path_29529" data-name="Path 29529" d="M48.834,206.932a1.785,1.785,0,1,1,2.525,0A1.783,1.783,0,0,1,48.834,206.932Z" transform="translate(231.593 33.69)" fill="#d9d5d5"/>
    <path id="Path_29530" data-name="Path 29530" d="M47.338,205.436a1.785,1.785,0,1,1,2.525,0A1.783,1.783,0,0,1,47.338,205.436Z" transform="translate(219.696 21.793)" fill="#d9d5d5"/>
    <path id="Path_29531" data-name="Path 29531" d="M45.842,203.94a1.785,1.785,0,1,1,2.525,0A1.783,1.783,0,0,1,45.842,203.94Z" transform="translate(207.799 9.896)" fill="#d9d5d5"/>
    <path id="Path_29532" data-name="Path 29532" d="M44.346,202.444a1.785,1.785,0,1,1,2.525,0A1.783,1.783,0,0,1,44.346,202.444Z" transform="translate(195.902 -2.001)" fill="#d9d5d5"/>
    <path id="Path_29533" data-name="Path 29533" d="M42.851,200.951a1.788,1.788,0,1,1,2.525,0A1.794,1.794,0,0,1,42.851,200.951Z" transform="translate(184.013 -13.892)" fill="#d9d5d5"/>
    <path id="Path_29534" data-name="Path 29534" d="M41.355,199.453a1.785,1.785,0,1,1,2.525,0A1.783,1.783,0,0,1,41.355,199.453Z" transform="translate(172.116 -25.787)" fill="#d9d5d5"/>
    <path id="Path_29535" data-name="Path 29535" d="M39.859,197.957a1.785,1.785,0,1,1,2.525,0A1.783,1.783,0,0,1,39.859,197.957Z" transform="translate(160.219 -37.684)" fill="#d9d5d5"/>
    <path id="Path_29536" data-name="Path 29536" d="M38.363,196.461a1.785,1.785,0,1,1,2.525,0A1.783,1.783,0,0,1,38.363,196.461Z" transform="translate(148.322 -49.581)" fill="#d9d5d5"/>
    <circle id="Ellipse_12269" data-name="Ellipse 12269" cx="1.785" cy="1.785" r="1.785" transform="translate(172.774 130.443)" fill="#d9d5d5"/>
    <path id="Path_29537" data-name="Path 29537" d="M35.372,193.47a1.785,1.785,0,1,1,2.525,0A1.783,1.783,0,0,1,35.372,193.47Z" transform="translate(124.536 -73.367)" fill="#d9d5d5"/>
    <path id="Path_29538" data-name="Path 29538" d="M33.876,191.974a1.785,1.785,0,1,1,2.525,0A1.783,1.783,0,0,1,33.876,191.974Z" transform="translate(112.639 -85.264)" fill="#d9d5d5"/>
    <path id="Path_29539" data-name="Path 29539" d="M32.38,190.478a1.785,1.785,0,1,1,2.525,0A1.783,1.783,0,0,1,32.38,190.478Z" transform="translate(100.742 -97.161)" fill="#d9d5d5"/>
    <path id="Path_29540" data-name="Path 29540" d="M30.884,188.982a1.785,1.785,0,1,1,2.525,0A1.783,1.783,0,0,1,30.884,188.982Z" transform="translate(88.845 -109.058)" fill="#d9d5d5"/>
    <path id="Path_29541" data-name="Path 29541" d="M29.389,187.487a1.785,1.785,0,1,1,2.525,0A1.783,1.783,0,0,1,29.389,187.487Z" transform="translate(76.956 -120.947)" fill="#d9d5d5"/>
    <path id="Path_29542" data-name="Path 29542" d="M27.893,185.991a1.785,1.785,0,1,1,2.525,0A1.783,1.783,0,0,1,27.893,185.991Z" transform="translate(65.059 -132.844)" fill="#d9d5d5"/>
    <path id="Path_29543" data-name="Path 29543" d="M26.4,184.495a1.785,1.785,0,1,1,2.525,0A1.783,1.783,0,0,1,26.4,184.495Z" transform="translate(53.162 -144.741)" fill="#d9d5d5"/>
    <path id="Path_29544" data-name="Path 29544" d="M24.9,183a1.785,1.785,0,1,1,2.525,0A1.783,1.783,0,0,1,24.9,183Z" transform="translate(41.265 -156.638)" fill="#d9d5d5"/>
    <circle id="Ellipse_12270" data-name="Ellipse 12270" cx="1.785" cy="1.785" r="1.785" transform="translate(52.255 9.924)" fill="#d9d5d5"/>
    <path id="Path_29545" data-name="Path 29545" d="M71.145,231.268a1.1,1.1,0,1,1,1.558,0A1.1,1.1,0,0,1,71.145,231.268Z" transform="translate(410.625 236.516)" fill="#d9d5d5"/>
    <circle id="Ellipse_12271" data-name="Ellipse 12271" cx="1.103" cy="1.103" r="1.103" transform="translate(468.058 452.51)" fill="#d9d5d5"/>
    <circle id="Ellipse_12272" data-name="Ellipse 12272" cx="1.103" cy="1.103" r="1.103" transform="translate(454.667 439.119)" fill="#d9d5d5"/>
    <path id="Path_29546" data-name="Path 29546" d="M66.658,226.78a1.1,1.1,0,1,1,1.558,0A1.087,1.087,0,0,1,66.658,226.78Z" transform="translate(374.942 200.825)" fill="#d9d5d5"/>
    <path id="Path_29547" data-name="Path 29547" d="M65.162,225.291a1.1,1.1,0,0,1,0-1.558,1.086,1.086,0,0,1,1.558,0,1.1,1.1,0,1,1-1.558,1.558Z" transform="translate(363.045 188.93)" fill="#d9d5d5"/>
    <circle id="Ellipse_12273" data-name="Ellipse 12273" cx="1.103" cy="1.103" r="1.103" transform="translate(414.494 398.946)" fill="#d9d5d5"/>
    <circle id="Ellipse_12274" data-name="Ellipse 12274" cx="1.103" cy="1.103" r="1.103" transform="translate(401.103 385.554)" fill="#d9d5d5"/>
    <path id="Path_29548" data-name="Path 29548" d="M60.675,220.806a1.1,1.1,0,1,1,1.558,0A1.113,1.113,0,0,1,60.675,220.806Z" transform="translate(327.362 153.245)" fill="#d9d5d5"/>
    <circle id="Ellipse_12275" data-name="Ellipse 12275" cx="1.103" cy="1.103" r="1.103" transform="translate(374.321 358.773)" fill="#d9d5d5"/>
    <circle id="Ellipse_12276" data-name="Ellipse 12276" cx="1.103" cy="1.103" r="1.103" transform="translate(360.93 345.382)" fill="#d9d5d5"/>
    <path id="Path_29549" data-name="Path 29549" d="M56.187,216.31a1.1,1.1,0,1,1,1.567,0A1.1,1.1,0,0,1,56.187,216.31Z" transform="translate(291.671 117.562)" fill="#d9d5d5"/>
    <path id="Path_29550" data-name="Path 29550" d="M54.692,214.814a1.1,1.1,0,1,1,1.558,0A1.1,1.1,0,0,1,54.692,214.814Z" transform="translate(279.782 105.665)" fill="#d9d5d5"/>
    <path id="Path_29551" data-name="Path 29551" d="M53.2,213.327a1.1,1.1,0,1,1,1.558,0A1.113,1.113,0,0,1,53.2,213.327Z" transform="translate(267.885 93.768)" fill="#d9d5d5"/>
    <path id="Path_29552" data-name="Path 29552" d="M51.7,211.823a1.1,1.1,0,1,1,1.558,0A1.1,1.1,0,0,1,51.7,211.823Z" transform="translate(255.988 81.879)" fill="#d9d5d5"/>
    <path id="Path_29553" data-name="Path 29553" d="M50.2,210.327a1.1,1.1,0,0,1,1.558-1.558,1.086,1.086,0,0,1,0,1.558A1.1,1.1,0,0,1,50.2,210.327Z" transform="translate(244.091 69.982)" fill="#d9d5d5"/>
    <circle id="Ellipse_12277" data-name="Ellipse 12277" cx="1.103" cy="1.103" r="1.103" transform="translate(280.584 265.036)" fill="#d9d5d5"/>
    <circle id="Ellipse_12278" data-name="Ellipse 12278" cx="1.103" cy="1.103" r="1.103" transform="translate(267.193 251.645)" fill="#d9d5d5"/>
    <circle id="Ellipse_12279" data-name="Ellipse 12279" cx="1.103" cy="1.103" r="1.103" transform="translate(253.802 238.254)" fill="#d9d5d5"/>
    <path id="Path_29554" data-name="Path 29554" d="M44.221,204.344a1.1,1.1,0,1,1,1.558-1.558,1.086,1.086,0,0,1,0,1.558A1.1,1.1,0,0,1,44.221,204.344Z" transform="translate(196.511 22.402)" fill="#d9d5d5"/>
    <circle id="Ellipse_12280" data-name="Ellipse 12280" cx="1.103" cy="1.103" r="1.103" transform="translate(227.02 211.472)" fill="#d9d5d5"/>
    <path id="Path_29555" data-name="Path 29555" d="M41.23,201.352a1.1,1.1,0,1,1,1.558,0A1.1,1.1,0,0,1,41.23,201.352Z" transform="translate(172.725 -1.392)" fill="#d9d5d5"/>
    <path id="Path_29556" data-name="Path 29556" d="M39.734,199.865a1.1,1.1,0,1,1,1.558,0A1.1,1.1,0,0,1,39.734,199.865Z" transform="translate(160.828 -13.289)" fill="#d9d5d5"/>
    <circle id="Ellipse_12281" data-name="Ellipse 12281" cx="1.103" cy="1.103" r="1.103" transform="translate(186.848 171.299)" fill="#d9d5d5"/>
    <circle id="Ellipse_12282" data-name="Ellipse 12282" cx="1.103" cy="1.103" r="1.103" transform="translate(173.456 157.908)" fill="#d9d5d5"/>
    <circle id="Ellipse_12283" data-name="Ellipse 12283" cx="1.103" cy="1.103" r="1.103" transform="translate(160.065 144.517)" fill="#d9d5d5"/>
    <path id="Path_29557" data-name="Path 29557" d="M33.751,193.882a1.1,1.1,0,1,1,1.558,0A1.113,1.113,0,0,1,33.751,193.882Z" transform="translate(113.247 -60.869)" fill="#d9d5d5"/>
    <path id="Path_29558" data-name="Path 29558" d="M32.255,192.384a1.1,1.1,0,0,1,0-1.558,1.087,1.087,0,0,1,1.558,0,1.1,1.1,0,0,1-1.558,1.558Z" transform="translate(101.35 -72.764)" fill="#d9d5d5"/>
    <circle id="Ellipse_12284" data-name="Ellipse 12284" cx="1.103" cy="1.103" r="1.103" transform="translate(119.892 104.344)" fill="#d9d5d5"/>
    <path id="Path_29559" data-name="Path 29559" d="M29.263,189.386a1.1,1.1,0,1,1,1.567,0A1.1,1.1,0,0,1,29.263,189.386Z" transform="translate(77.556 -96.552)" fill="#d9d5d5"/>
    <circle id="Ellipse_12285" data-name="Ellipse 12285" cx="1.103" cy="1.103" r="1.103" transform="translate(93.111 77.562)" fill="#d9d5d5"/>
    <circle id="Ellipse_12286" data-name="Ellipse 12286" cx="1.103" cy="1.103" r="1.103" transform="translate(79.72 64.171)" fill="#d9d5d5"/>
    <circle id="Ellipse_12287" data-name="Ellipse 12287" cx="1.103" cy="1.103" r="1.103" transform="translate(66.328 50.78)" fill="#d9d5d5"/>
    <path id="Path_29560" data-name="Path 29560" d="M23.28,183.4a1.1,1.1,0,1,1,1.567,0A1.1,1.1,0,0,1,23.28,183.4Z" transform="translate(29.976 -144.133)" fill="#d9d5d5"/>
    <path id="Path_29561" data-name="Path 29561" d="M21.785,181.907a1.1,1.1,0,1,1,1.558,0A1.1,1.1,0,0,1,21.785,181.907Z" transform="translate(18.087 -156.03)" fill="#d9d5d5"/>
    <path id="Path_29562" data-name="Path 29562" d="M20.289,180.42a1.1,1.1,0,1,1,1.558,0A1.113,1.113,0,0,1,20.289,180.42Z" transform="translate(6.19 -167.927)" fill="#d9d5d5"/>
    <path id="Path_29563" data-name="Path 29563" d="M71.034,233.262a.475.475,0,0,1,.671-.672.475.475,0,0,1-.671.672Z" transform="translate(411.184 260.861)" fill="#d9d5d5"/>
    <path id="Path_29564" data-name="Path 29564" d="M69.538,231.76a.47.47,0,0,1,0-.672.475.475,0,0,1,.671.672A.47.47,0,0,1,69.538,231.76Z" transform="translate(399.287 248.97)" fill="#d9d5d5"/>
    <path id="Path_29565" data-name="Path 29565" d="M68.036,230.264a.475.475,0,0,1,.671-.672.475.475,0,0,1-.671.672Z" transform="translate(387.396 237.073)" fill="#d9d5d5"/>
    <path id="Path_29566" data-name="Path 29566" d="M66.547,228.766a.468.468,0,1,1,.662,0A.459.459,0,0,1,66.547,228.766Z" transform="translate(375.501 225.178)" fill="#d9d5d5"/>
    <path id="Path_29567" data-name="Path 29567" d="M65.051,227.279a.47.47,0,0,1,0-.672.459.459,0,0,1,.662,0,.47.47,0,0,1,0,.672A.476.476,0,0,1,65.051,227.279Z" transform="translate(363.604 213.281)" fill="#d9d5d5"/>
    <path id="Path_29568" data-name="Path 29568" d="M63.555,225.777a.47.47,0,0,1,0-.672.475.475,0,1,1,0,.672Z" transform="translate(351.707 201.39)" fill="#d9d5d5"/>
    <path id="Path_29569" data-name="Path 29569" d="M62.053,224.281a.475.475,0,0,1,.671-.672.475.475,0,1,1-.671.672Z" transform="translate(339.816 189.493)" fill="#d9d5d5"/>
    <path id="Path_29570" data-name="Path 29570" d="M60.557,222.783a.476.476,0,0,1,0-.663.47.47,0,0,1,.671,0,.46.46,0,0,1,0,.663A.47.47,0,0,1,60.557,222.783Z" transform="translate(327.919 177.598)" fill="#d9d5d5"/>
    <path id="Path_29571" data-name="Path 29571" d="M59.068,221.3a.47.47,0,0,1,0-.672.46.46,0,0,1,.662,0,.47.47,0,0,1,0,.672A.476.476,0,0,1,59.068,221.3Z" transform="translate(316.024 165.701)" fill="#d9d5d5"/>
    <path id="Path_29572" data-name="Path 29572" d="M57.572,219.8a.475.475,0,0,1,.671-.671.475.475,0,1,1-.671.671Z" transform="translate(304.127 153.804)" fill="#d9d5d5"/>
    <path id="Path_29573" data-name="Path 29573" d="M56.07,218.3a.475.475,0,1,1,.671,0A.487.487,0,0,1,56.07,218.3Z" transform="translate(292.236 141.913)" fill="#d9d5d5"/>
    <path id="Path_29574" data-name="Path 29574" d="M54.574,216.8a.476.476,0,0,1,0-.663.47.47,0,0,1,.671,0,.46.46,0,0,1,0,.663A.47.47,0,0,1,54.574,216.8Z" transform="translate(280.339 130.018)" fill="#d9d5d5"/>
    <circle id="Ellipse_12288" data-name="Ellipse 12288" cx="0.473" cy="0.473" r="0.473" transform="translate(321.387 332.621)" fill="#d9d5d5"/>
    <path id="Path_29575" data-name="Path 29575" d="M51.589,213.817a.47.47,0,0,1,0-.672.459.459,0,0,1,.662,0,.47.47,0,0,1,0,.672A.476.476,0,0,1,51.589,213.817Z" transform="translate(256.546 106.224)" fill="#d9d5d5"/>
    <path id="Path_29576" data-name="Path 29576" d="M50.093,212.321a.475.475,0,0,1,.671-.671.475.475,0,1,1-.671.671Z" transform="translate(244.649 94.327)" fill="#d9d5d5"/>
    <path id="Path_29577" data-name="Path 29577" d="M48.591,210.819a.475.475,0,0,1,.671-.671.475.475,0,1,1-.671.671Z" transform="translate(232.758 82.436)" fill="#d9d5d5"/>
    <path id="Path_29578" data-name="Path 29578" d="M47.1,209.321a.468.468,0,1,1,.662,0A.46.46,0,0,1,47.1,209.321Z" transform="translate(220.863 70.541)" fill="#d9d5d5"/>
    <path id="Path_29579" data-name="Path 29579" d="M45.606,207.825a.468.468,0,1,1,.663,0A.46.46,0,0,1,45.606,207.825Z" transform="translate(208.966 58.644)" fill="#d9d5d5"/>
    <path id="Path_29580" data-name="Path 29580" d="M44.11,206.338a.475.475,0,0,1,.671-.672.475.475,0,1,1-.671.672Z" transform="translate(197.069 46.747)" fill="#d9d5d5"/>
    <path id="Path_29581" data-name="Path 29581" d="M42.608,204.836a.475.475,0,1,1,.671,0A.47.47,0,0,1,42.608,204.836Z" transform="translate(185.178 34.855)" fill="#d9d5d5"/>
    <path id="Path_29582" data-name="Path 29582" d="M41.112,203.338a.476.476,0,0,1,0-.662.47.47,0,0,1,.671,0,.46.46,0,0,1,0,.662A.47.47,0,0,1,41.112,203.338Z" transform="translate(173.281 22.961)" fill="#d9d5d5"/>
    <path id="Path_29583" data-name="Path 29583" d="M39.623,201.842a.468.468,0,1,1,.662,0A.46.46,0,0,1,39.623,201.842Z" transform="translate(161.386 11.064)" fill="#d9d5d5"/>
    <path id="Path_29584" data-name="Path 29584" d="M38.127,200.355a.475.475,0,0,1,.671-.671.475.475,0,1,1-.671.671Z" transform="translate(149.489 -0.833)" fill="#d9d5d5"/>
    <path id="Path_29585" data-name="Path 29585" d="M36.631,198.853a.47.47,0,0,1,0-.671.475.475,0,1,1,0,.671Z" transform="translate(137.592 -12.725)" fill="#d9d5d5"/>
    <path id="Path_29586" data-name="Path 29586" d="M35.129,197.357a.475.475,0,0,1,.671-.671.475.475,0,1,1-.671.671Z" transform="translate(125.701 -24.622)" fill="#d9d5d5"/>
    <path id="Path_29587" data-name="Path 29587" d="M33.64,195.859a.468.468,0,1,1,.662,0A.46.46,0,0,1,33.64,195.859Z" transform="translate(113.806 -36.517)" fill="#d9d5d5"/>
    <path id="Path_29588" data-name="Path 29588" d="M32.144,194.372a.47.47,0,0,1,0-.671.46.46,0,0,1,.662,0,.47.47,0,0,1,0,.671A.476.476,0,0,1,32.144,194.372Z" transform="translate(101.909 -48.414)" fill="#d9d5d5"/>
    <path id="Path_29589" data-name="Path 29589" d="M30.648,192.87a.47.47,0,0,1,0-.672.475.475,0,1,1,0,.672Z" transform="translate(90.012 -60.305)" fill="#d9d5d5"/>
    <path id="Path_29590" data-name="Path 29590" d="M29.146,191.374a.475.475,0,1,1,.671-.672.475.475,0,0,1-.671.672Z" transform="translate(78.121 -72.202)" fill="#d9d5d5"/>
    <circle id="Ellipse_12289" data-name="Ellipse 12289" cx="0.473" cy="0.473" r="0.473" transform="translate(93.74 104.974)" fill="#d9d5d5"/>
    <path id="Path_29591" data-name="Path 29591" d="M26.161,188.38a.468.468,0,1,1,.663,0A.46.46,0,0,1,26.161,188.38Z" transform="translate(54.329 -95.994)" fill="#d9d5d5"/>
    <path id="Path_29592" data-name="Path 29592" d="M24.665,186.893a.475.475,0,0,1,.671-.672.475.475,0,1,1-.671.672Z" transform="translate(42.432 -107.891)" fill="#d9d5d5"/>
    <path id="Path_29593" data-name="Path 29593" d="M23.163,185.391a.475.475,0,1,1,.671,0A.487.487,0,0,1,23.163,185.391Z" transform="translate(30.541 -119.782)" fill="#d9d5d5"/>
    <path id="Path_29594" data-name="Path 29594" d="M21.667,183.895a.475.475,0,0,1,.671-.671.475.475,0,1,1-.671.671Z" transform="translate(18.644 -131.679)" fill="#d9d5d5"/>
    <circle id="Ellipse_12290" data-name="Ellipse 12290" cx="0.473" cy="0.473" r="0.473" transform="translate(26.786 38.019)" fill="#d9d5d5"/>
    <path id="Path_29595" data-name="Path 29595" d="M18.682,180.91a.475.475,0,0,1,.671-.671.475.475,0,0,1-.671.671Z" transform="translate(-5.148 -155.471)" fill="#d9d5d5"/>
    <path id="Path_29596" data-name="Path 29596" d="M17.186,179.408a.47.47,0,0,1,0-.671.475.475,0,1,1,0,.671Z" transform="translate(-17.045 -167.362)" fill="#d9d5d5"/>
  </g>
</svg>
