<?xml version="1.0" encoding="utf-8"?>
<svg xmlns="http://www.w3.org/2000/svg" width="36.035" height="54.168" viewBox="0 0 36.035 54.168">
  <g id="Group_5197" data-name="Group 5197" transform="translate(-1815.581 -461.526)">
    <path id="Path_29617" data-name="Path 29617" d="M1840.385,489.075v-1.369a.7.7,0,0,0-.453-.65c-3.2-1.2-6.756-2.693-7.054-3.623v-.977a6.142,6.142,0,0,0,1.5-2.656,1.553,1.553,0,0,0,.313-2.293v-2.183c0-2.254-1.292-3.8-4.246-3.8-2.878,0-4.247,1.544-4.247,3.8v2.185a1.552,1.552,0,0,0,.313,2.29,6.121,6.121,0,0,0,1.5,2.658v.977c-.3.928-3.852,2.422-7.054,3.623a.7.7,0,0,0-.453.65v1.369" transform="translate(3.158 7.253)" fill="none" stroke="#fff" stroke-linecap="round" stroke-linejoin="round" stroke-width="2"/>
    <path id="Path_29618" data-name="Path 29618" d="M1830.443,462.526h-5.083a1.714,1.714,0,0,0-1.7,1.813l1.013,7.541a1.618,1.618,0,0,0,1.7,1.291h3.053a1.6,1.6,0,0,0,1.7-1.271l1.015-7.594A1.71,1.71,0,0,0,1830.443,462.526Z" transform="translate(5.698)" fill="none" stroke="#fff" stroke-linecap="round" stroke-linejoin="round" stroke-width="2"/>
    <path id="Path_29619" data-name="Path 29619" d="M1824.523,467.541H1820.8a4.1,4.1,0,0,0-4.215,3.939v35.484c0,2.236,1.981,3.689,4.215,3.689H1846.4c2.234,0,4.213-1.454,4.213-3.689V471.48a4.1,4.1,0,0,0-4.213-3.939h-3.727" transform="translate(0 4.041)" fill="none" stroke="#fff" stroke-linecap="round" stroke-linejoin="round" stroke-width="2"/>
    <line id="Line_187" data-name="Line 187" x2="8.565" transform="translate(1834.977 507.808)" fill="none" stroke="#fff" stroke-linecap="round" stroke-linejoin="round" stroke-width="2"/>
    <line id="Line_188" data-name="Line 188" x2="4.528" transform="translate(1823.656 507.808)" fill="none" stroke="#fff" stroke-linecap="round" stroke-linejoin="round" stroke-width="2"/>
    <line id="Line_189" data-name="Line 189" x2="33.961" transform="translate(1816.619 500.355)" fill="none" stroke="#fff" stroke-linecap="round" stroke-linejoin="round" stroke-width="2"/>
    <line id="Line_190" data-name="Line 190" transform="translate(1833.599 467.103)" fill="none" stroke="#fff" stroke-linecap="round" stroke-linejoin="round" stroke-width="2"/>
  </g>
</svg>
