<svg id="connections" xmlns="http://www.w3.org/2000/svg" width="36" height="36" viewBox="0 0 36 36">
  <path id="Combined-Shape" d="M36,0H0V36H36V0ZM15.126,2H2V15.126a3.976,3.976,0,0,1,1.032.428L15.554,3.032A3.976,3.976,0,0,1,15.126,2ZM18,4.874V18H4.874a3.976,3.976,0,0,0-.428-1.032L16.968,4.446A3.976,3.976,0,0,0,18,4.874ZM22.874,2H34.586L20,16.586V4.874A4.007,4.007,0,0,0,22.874,2ZM33.126,20H20V33.126a3.976,3.976,0,0,1,1.032.428L33.554,21.032A3.976,3.976,0,0,1,33.126,20ZM36,22.874V36H22.874a3.976,3.976,0,0,0-.428-1.032L34.968,22.446A3.976,3.976,0,0,0,36,22.874Zm0-7.748V3.414L21.414,18H33.126A4.007,4.007,0,0,1,36,15.126Zm-18,18V21.414L3.414,36H15.126A4.007,4.007,0,0,1,18,33.126ZM4.874,20H16.586L2,34.586V22.874A4.007,4.007,0,0,0,4.874,20Z" fill="#211c1c" fill-rule="evenodd"/>
</svg>
