<?xml version="1.0" encoding="utf-8"?>
<svg xmlns="http://www.w3.org/2000/svg" width="40.754" height="32.063" viewBox="0 0 40.754 32.063">
  <g id="Group_5198" data-name="Group 5198" transform="translate(-821.095 -1873.58)">
    <path id="Path_29613" data-name="Path 29613" d="M834.827,1880.946c0,3.516-6.366,13.19-6.366,13.19s-6.366-9.674-6.366-13.19a6.366,6.366,0,0,1,12.732,0Z" transform="translate(0 0)" fill="none" stroke="#fff" stroke-linecap="round" stroke-linejoin="round" stroke-width="2"/>
    <path id="Path_29614" data-name="Path 29614" d="M827.326,1881.724a2.265,2.265,0,1,1,2.267-2.265A2.267,2.267,0,0,1,827.326,1881.724Z" transform="translate(1.136 1.001)" fill="none" stroke="#fff" stroke-linecap="round" stroke-linejoin="round" stroke-width="2"/>
    <path id="Path_29615" data-name="Path 29615" d="M853.642,1888.37c0,3.516-6.366,13.19-6.366,13.19s-6.365-9.674-6.365-13.19a6.365,6.365,0,1,1,12.731,0Z" transform="translate(7.207 2.844)" fill="none" stroke="#fff" stroke-linecap="round" stroke-linejoin="round" stroke-width="2"/>
    <path id="Path_29616" data-name="Path 29616" d="M846.14,1889.148a2.265,2.265,0,1,1,2.267-2.264A2.265,2.265,0,0,1,846.14,1889.148Z" transform="translate(8.342 3.844)" fill="none" stroke="#fff" stroke-linecap="round" stroke-linejoin="round" stroke-width="2"/>
    <line id="Line_186" data-name="Line 186" x2="23.54" y2="6.835" transform="translate(828.461 1897.569)" fill="none" stroke="#fff" stroke-linecap="round" stroke-linejoin="round" stroke-width="2" stroke-dasharray="1 3"/>
  </g>
</svg>
