<?xml version="1.0" encoding="utf-8"?>
<svg xmlns="http://www.w3.org/2000/svg" width="34.98" height="37.453" viewBox="0 0 34.98 37.453">
  <g id="Group_5200" data-name="Group 5200" transform="translate(-1321.035 -288.311)">
    <g id="Group_5188" data-name="Group 5188" transform="translate(1326.95 319.967)">
      <g id="Group_5187" data-name="Group 5187">
        <g id="Group_5186" data-name="Group 5186">
          <line id="Line_197" data-name="Line 197" transform="translate(23.202)" fill="none" stroke="#fff" stroke-linecap="round" stroke-linejoin="round" stroke-width="2"/>
          <path id="Path_29621" data-name="Path 29621" d="M1345.263,309.494a16.494,16.494,0,0,1-19.521-.91" transform="translate(-1324.545 -307.462)" fill="none" stroke="#fff" stroke-linecap="round" stroke-linejoin="round" stroke-width="2" stroke-dasharray="0 1.951"/>
          <line id="Line_198" data-name="Line 198" transform="translate(0 0.051)" fill="none" stroke="#fff" stroke-linecap="round" stroke-linejoin="round" stroke-width="2"/>
        </g>
      </g>
    </g>
    <g id="Group_5191" data-name="Group 5191" transform="translate(1340.992 291.967)">
      <g id="Group_5190" data-name="Group 5190">
        <g id="Group_5189" data-name="Group 5189">
          <line id="Line_199" data-name="Line 199" fill="none" stroke="#fff" stroke-linecap="round" stroke-linejoin="round" stroke-width="2"/>
          <path id="Path_29622" data-name="Path 29622" d="M1335.382,291.384a16.511,16.511,0,0,1,9.713,21.88" transform="translate(-1332.332 -290.622)" fill="none" stroke="#fff" stroke-linecap="round" stroke-linejoin="round" stroke-width="2" stroke-dasharray="0 1.909"/>
          <line id="Line_200" data-name="Line 200" transform="translate(12.089 24.063)" fill="none" stroke="#fff" stroke-linecap="round" stroke-linejoin="round" stroke-width="2"/>
        </g>
      </g>
    </g>
    <g id="Group_5194" data-name="Group 5194" transform="translate(1322.035 291.967)">
      <g id="Group_5193" data-name="Group 5193">
        <g id="Group_5192" data-name="Group 5192">
          <line id="Line_201" data-name="Line 201" transform="translate(1.959 24.108)" fill="none" stroke="#fff" stroke-linecap="round" stroke-linejoin="round" stroke-width="2"/>
          <path id="Path_29623" data-name="Path 29623" d="M1322.775,312.006a16.509,16.509,0,0,1,11.738-20.9" transform="translate(-1322.035 -290.8)" fill="none" stroke="#fff" stroke-linecap="round" stroke-linejoin="round" stroke-width="2" stroke-dasharray="0 1.912"/>
          <line id="Line_202" data-name="Line 202" transform="translate(14.024)" fill="none" stroke="#fff" stroke-linecap="round" stroke-linejoin="round" stroke-width="2"/>
        </g>
      </g>
    </g>
    <path id="Path_29624" data-name="Path 29624" d="M1327.973,303.136l4.336,4.654,8.042-9.736" transform="translate(3.853 5.673)" fill="none" stroke="#fff" stroke-linecap="round" stroke-linejoin="round" stroke-width="2"/>
    <path id="Path_29625" data-name="Path 29625" d="M1333.009,294.258h0a2.474,2.474,0,0,1-2.473-2.473h0a2.473,2.473,0,0,1,2.473-2.473h0a2.472,2.472,0,0,1,2.473,2.473h0A2.473,2.473,0,0,1,1333.009,294.258Z" transform="translate(5.516 0)" fill="none" stroke="#fff" stroke-linecap="round" stroke-linejoin="round" stroke-width="2"/>
    <path id="Path_29626" data-name="Path 29626" d="M1341.09,310.259h0a2.472,2.472,0,0,1-2.473-2.473h0a2.473,2.473,0,0,1,2.473-2.473h0a2.474,2.474,0,0,1,2.473,2.473h0A2.473,2.473,0,0,1,1341.09,310.259Z" transform="translate(10.759 10.382)" fill="none" stroke="#fff" stroke-linecap="round" stroke-linejoin="round" stroke-width="2"/>
    <path id="Path_29627" data-name="Path 29627" d="M1324.993,310.259h0a2.473,2.473,0,0,1-2.473-2.473h0a2.474,2.474,0,0,1,2.473-2.473h0a2.473,2.473,0,0,1,2.473,2.473h0A2.472,2.472,0,0,1,1324.993,310.259Z" transform="translate(0.315 10.382)" fill="none" stroke="#fff" stroke-linecap="round" stroke-linejoin="round" stroke-width="2"/>
  </g>
</svg>
