<svg xmlns="http://www.w3.org/2000/svg" width="17.203" height="17.203" viewBox="0 0 17.203 17.203">
  <path id="path" d="M536.747,918.747a.98.98,0,0,1,.956.956v3.345a.98.98,0,0,1-.956.956A16.316,16.316,0,0,1,520.5,907.756a.98.98,0,0,1,.956-.956H524.8a.98.98,0,0,1,.956.956,10.826,10.826,0,0,0,.573,3.441,1.044,1.044,0,0,1-.191.956l-2.1,2.1a14.372,14.372,0,0,0,6.308,6.308l2.1-2.1a.741.741,0,0,1,.956-.191A11.76,11.76,0,0,0,536.747,918.747ZM535.7,915.4a6.527,6.527,0,0,0-6.595-6.595V906.9a8.6,8.6,0,0,1,6.117,2.485A8.074,8.074,0,0,1,537.7,915.5H535.7Zm-3.823,0a2.94,2.94,0,0,0-2.867-2.867v-1.911a4.338,4.338,0,0,1,3.345,1.434,5.054,5.054,0,0,1,1.434,3.345Z" transform="translate(-520.5 -906.8)" fill="#4d4a4a"/>
</svg>
